<svg width="70" height="10" viewBox="0 0 70 10" fill="none" xmlns="http://www.w3.org/2000/svg">
<path d="M0.76 8V0.88H3.54C4.4 0.88 5.04667 1.04333 5.48 1.37C5.91333 1.69667 6.13 2.14333 6.13 2.71C6.13 3.51 5.72667 4.05333 4.92 4.34V4.36C5.84667 4.56667 6.31 5.12 6.31 6.02C6.31 6.62667 6.08 7.11 5.62 7.47C5.16 7.82333 4.52333 8 3.71 8H0.76ZM3.37 5.03H2.46V6.65H3.4C3.8 6.65 4.08667 6.58667 4.26 6.46C4.44 6.33333 4.53 6.13333 4.53 5.86C4.53 5.57333 4.44 5.36333 4.26 5.23C4.08 5.09667 3.78333 5.03 3.37 5.03ZM3.42 2.22H2.46V3.76H3.36C3.74 3.76 4.01667 3.69667 4.19 3.57C4.37 3.44333 4.46 3.24667 4.46 2.98C4.46 2.71333 4.37667 2.52 4.21 2.4C4.04333 2.28 3.78 2.22 3.42 2.22ZM9.39063 2.76C10.9306 2.76 11.7006 3.44667 11.7006 4.82V6.57C11.7006 7.17667 11.7506 7.65333 11.8506 8H10.3506C10.304 7.81333 10.2806 7.59333 10.2806 7.34H10.2606C9.87396 7.86667 9.32396 8.13 8.61063 8.13C8.07063 8.13 7.64396 7.98333 7.33063 7.69C7.01729 7.39667 6.86063 7.02333 6.86063 6.57C6.86063 6.12333 7.01396 5.76667 7.32063 5.5C7.63396 5.23333 8.15396 5.04333 8.88063 4.93C9.30063 4.86333 9.70729 4.81667 10.1006 4.79V4.61C10.1006 4.07667 9.86396 3.81 9.39063 3.81C8.92396 3.81 8.68396 4.04667 8.67063 4.52H7.07063C7.09729 4.00667 7.30396 3.58667 7.69063 3.26C8.07729 2.92667 8.64396 2.76 9.39063 2.76ZM10.1006 5.88V5.7C9.78063 5.71333 9.48063 5.74667 9.20063 5.8C8.95396 5.84667 8.77396 5.92333 8.66063 6.03C8.55396 6.13 8.50063 6.27 8.50063 6.45C8.50063 6.63 8.55729 6.77333 8.67063 6.88C8.78396 6.98 8.94396 7.03 9.15063 7.03C9.50396 7.03 9.75063 6.93 9.89063 6.73C10.0306 6.53 10.1006 6.24667 10.1006 5.88ZM14.9161 2.76C15.6294 2.76 16.1828 2.90333 16.5761 3.19C16.9694 3.47667 17.1661 3.9 17.1661 4.46H15.5861C15.5861 4.02667 15.3594 3.81 14.9061 3.81C14.5128 3.81 14.3161 3.94333 14.3161 4.21C14.3161 4.35667 14.3828 4.46667 14.5161 4.54C14.6561 4.61333 14.9361 4.70333 15.3561 4.81C15.6094 4.87667 15.8028 4.93333 15.9361 4.98C16.0761 5.02 16.2494 5.08667 16.4561 5.18C16.6628 5.27333 16.8194 5.37667 16.9261 5.49C17.0394 5.59667 17.1361 5.74 17.2161 5.92C17.3028 6.1 17.3461 6.30333 17.3461 6.53C17.3461 7.02333 17.1361 7.42 16.7161 7.72C16.2961 8.01333 15.7194 8.16 14.9861 8.16C13.3661 8.16 12.5561 7.55667 12.5561 6.35H14.2261C14.2261 6.83 14.4861 7.07 15.0061 7.07C15.2128 7.07 15.3694 7.03333 15.4761 6.96C15.5894 6.88 15.6461 6.77667 15.6461 6.65C15.6461 6.47667 15.5661 6.35 15.4061 6.27C15.2528 6.18333 14.9428 6.08 14.4761 5.96C14.2428 5.9 14.0661 5.85333 13.9461 5.82C13.8261 5.78667 13.6694 5.72667 13.4761 5.64C13.2828 5.54667 13.1394 5.45 13.0461 5.35C12.9528 5.25 12.8661 5.11333 12.7861 4.94C12.7128 4.76667 12.6761 4.57 12.6761 4.35C12.6761 3.87667 12.8728 3.49333 13.2661 3.2C13.6594 2.90667 14.2094 2.76 14.9161 2.76ZM20.6153 7.05C20.8486 7.05 21.042 6.99333 21.1953 6.88C21.3486 6.76667 21.4386 6.62 21.4653 6.44H23.1553C23.0486 6.93333 22.7653 7.34333 22.3053 7.67C21.852 7.99667 21.2953 8.16 20.6353 8.16C19.802 8.16 19.152 7.90667 18.6853 7.4C18.2253 6.89333 17.9953 6.23333 17.9953 5.42C17.9953 4.64667 18.2286 4.01 18.6953 3.51C19.162 3.01 19.802 2.76 20.6153 2.76C21.2086 2.76 21.7153 2.90667 22.1353 3.2C22.5553 3.48667 22.8553 3.88333 23.0353 4.39C23.1686 4.75 23.2353 5.22 23.2353 5.8H19.6253C19.6586 6.63333 19.9886 7.05 20.6153 7.05ZM20.6153 3.85C20.0686 3.85 19.7486 4.18667 19.6553 4.86H21.5653C21.532 4.52 21.4286 4.26667 21.2553 4.1C21.082 3.93333 20.8686 3.85 20.6153 3.85ZM26.5998 8V0.88H29.1198C30.3398 0.88 31.2765 1.19 31.9298 1.81C32.5898 2.42333 32.9198 3.3 32.9198 4.44C32.9198 5.58 32.5898 6.46 31.9298 7.08C31.2765 7.69333 30.3398 8 29.1198 8H26.5998ZM29.0798 2.35H28.3198V6.53H29.0798C30.4398 6.53 31.1198 5.83333 31.1198 4.44C31.1198 3.04667 30.4398 2.35 29.0798 2.35ZM36.2208 7.05C36.4541 7.05 36.6474 6.99333 36.8008 6.88C36.9541 6.76667 37.0441 6.62 37.0708 6.44H38.7608C38.6541 6.93333 38.3708 7.34333 37.9108 7.67C37.4574 7.99667 36.9008 8.16 36.2408 8.16C35.4074 8.16 34.7574 7.90667 34.2908 7.4C33.8308 6.89333 33.6008 6.23333 33.6008 5.42C33.6008 4.64667 33.8341 4.01 34.3008 3.51C34.7674 3.01 35.4074 2.76 36.2208 2.76C36.8141 2.76 37.3208 2.90667 37.7408 3.2C38.1608 3.48667 38.4608 3.88333 38.6408 4.39C38.7741 4.75 38.8408 5.22 38.8408 5.8H35.2308C35.2641 6.63333 35.5941 7.05 36.2208 7.05ZM36.2208 3.85C35.6741 3.85 35.3541 4.18667 35.2608 4.86H37.1708C37.1374 4.52 37.0341 4.26667 36.8608 4.1C36.6874 3.93333 36.4741 3.85 36.2208 3.85ZM41.8399 2.76C42.5533 2.76 43.1066 2.90333 43.4999 3.19C43.8933 3.47667 44.0899 3.9 44.0899 4.46H42.5099C42.5099 4.02667 42.2833 3.81 41.8299 3.81C41.4366 3.81 41.2399 3.94333 41.2399 4.21C41.2399 4.35667 41.3066 4.46667 41.4399 4.54C41.5799 4.61333 41.8599 4.70333 42.2799 4.81C42.5333 4.87667 42.7266 4.93333 42.8599 4.98C42.9999 5.02 43.1733 5.08667 43.3799 5.18C43.5866 5.27333 43.7433 5.37667 43.8499 5.49C43.9633 5.59667 44.0599 5.74 44.1399 5.92C44.2266 6.1 44.2699 6.30333 44.2699 6.53C44.2699 7.02333 44.0599 7.42 43.6399 7.72C43.2199 8.01333 42.6433 8.16 41.9099 8.16C40.2899 8.16 39.4799 7.55667 39.4799 6.35H41.1499C41.1499 6.83 41.4099 7.07 41.9299 7.07C42.1366 7.07 42.2933 7.03333 42.3999 6.96C42.5133 6.88 42.5699 6.77667 42.5699 6.65C42.5699 6.47667 42.4899 6.35 42.3299 6.27C42.1766 6.18333 41.8666 6.08 41.3999 5.96C41.1666 5.9 40.9899 5.85333 40.8699 5.82C40.7499 5.78667 40.5933 5.72667 40.3999 5.64C40.2066 5.54667 40.0633 5.45 39.9699 5.35C39.8766 5.25 39.7899 5.11333 39.7099 4.94C39.6366 4.76667 39.5999 4.57 39.5999 4.35C39.5999 3.87667 39.7966 3.49333 40.1899 3.2C40.5833 2.90667 41.1333 2.76 41.8399 2.76ZM46.8598 2.92V8H45.1998V2.92H46.8598ZM46.8598 0.88V2.19H45.1998V0.88H46.8598ZM49.8707 2.78C50.4707 2.78 50.9507 3.05333 51.3107 3.6H51.3307V2.92H52.8807V7.67C52.8807 8.43667 52.6574 9.00667 52.2107 9.38C51.7707 9.76 51.144 9.95 50.3307 9.95C49.624 9.95 49.0707 9.80667 48.6707 9.52C48.2707 9.23333 48.044 8.83333 47.9907 8.32H49.6007C49.634 8.69333 49.8874 8.88 50.3607 8.88C50.654 8.88 50.8774 8.78667 51.0307 8.6C51.1907 8.41333 51.2707 8.10333 51.2707 7.67V7.2H51.2507C50.8974 7.69333 50.4274 7.94 49.8407 7.94C49.2074 7.94 48.704 7.70667 48.3307 7.24C47.9574 6.77333 47.7707 6.14667 47.7707 5.36C47.7707 4.57333 47.9607 3.94667 48.3407 3.48C48.7207 3.01333 49.2307 2.78 49.8707 2.78ZM50.3907 4.08C50.1174 4.08 49.8974 4.19667 49.7307 4.43C49.5707 4.65667 49.4907 4.96667 49.4907 5.36C49.4907 5.74667 49.5707 6.05667 49.7307 6.29C49.8974 6.51667 50.1174 6.63 50.3907 6.63C50.6774 6.63 50.904 6.51667 51.0707 6.29C51.2374 6.05667 51.3207 5.74667 51.3207 5.36C51.3207 4.96667 51.2374 4.65667 51.0707 4.43C50.904 4.19667 50.6774 4.08 50.3907 4.08ZM57.1463 2.79C57.7263 2.79 58.1797 2.97 58.5063 3.33C58.8397 3.68333 59.0063 4.2 59.0063 4.88V8H57.3463V5.06C57.3463 4.40667 57.0997 4.08 56.6063 4.08C56.3397 4.08 56.1297 4.19 55.9763 4.41C55.8297 4.62333 55.7563 4.94333 55.7563 5.37V8H54.0963V2.92H55.6463V3.53H55.6663C56.0397 3.03667 56.533 2.79 57.1463 2.79ZM62.4903 7.05C62.7236 7.05 62.917 6.99333 63.0703 6.88C63.2236 6.76667 63.3136 6.62 63.3403 6.44H65.0303C64.9236 6.93333 64.6403 7.34333 64.1803 7.67C63.727 7.99667 63.1703 8.16 62.5103 8.16C61.677 8.16 61.027 7.90667 60.5603 7.4C60.1003 6.89333 59.8703 6.23333 59.8703 5.42C59.8703 4.64667 60.1036 4.01 60.5703 3.51C61.037 3.01 61.677 2.76 62.4903 2.76C63.0836 2.76 63.5903 2.90667 64.0103 3.2C64.4303 3.48667 64.7303 3.88333 64.9103 4.39C65.0436 4.75 65.1103 5.22 65.1103 5.8H61.5003C61.5336 6.63333 61.8636 7.05 62.4903 7.05ZM62.4903 3.85C61.9436 3.85 61.6236 4.18667 61.5303 4.86H63.4403C63.407 4.52 63.3036 4.26667 63.1303 4.1C62.957 3.93333 62.7436 3.85 62.4903 3.85ZM69.0102 2.84C69.1835 2.84 69.3435 2.86 69.4902 2.9V4.32C69.3035 4.28667 69.1335 4.27 68.9802 4.27C68.5602 4.27 68.2368 4.4 68.0102 4.66C67.7902 4.91333 67.6802 5.28333 67.6802 5.77V8H66.0202V2.92H67.5602V3.62H67.5802C67.9202 3.1 68.3968 2.84 69.0102 2.84Z" fill="url(#paint0_linear_742_32)"/>
<defs>
<linearGradient id="paint0_linear_742_32" x1="0" y1="5" x2="70" y2="5" gradientUnits="userSpaceOnUse">
<stop stop-color="#BF00FF"/>
<stop offset="1" stop-color="#2F00FF"/>
</linearGradient>
</defs>
</svg>
