<svg width="35" height="35" viewBox="0 0 35 35" fill="none" xmlns="http://www.w3.org/2000/svg">
<path d="M35 34.8088L21.51 35L7.90919 10.572V31.0411L9.47011 33.2811C9.59681 33.4629 9.66473 33.6792 9.66473 33.9008C9.66473 34.5054 9.17016 34.9931 8.56567 34.9847L0.979323 34.8787C0.43626 34.8711 0 34.4287 0 33.8856C0 33.6743 0.0673802 33.4686 0.192348 33.2982L1.84794 31.0411V0H10.293L21.0665 18.8046L21.1035 3.75643L19.6251 1.34961V0.0899743H28.4398V1.3946L26.8691 3.75643V28.3988C26.8691 28.3988 31.4335 28.4591 31.6183 28.3988C31.8031 28.3385 33.0042 24.1918 33.0042 24.1918H34.9261L35 34.8088Z" fill="#DCDCDC"/>
</svg>
